<svg width="37" height="36" viewBox="0 0 37 36" fill="none" xmlns="http://www.w3.org/2000/svg">
<path d="M22.8484 3L16.1914 14.529C18.3769 13.9911 20.6812 14.2259 22.7132 15.1935C24.7453 16.1612 26.3801 17.802 27.3401 19.8377C28.3001 21.8734 28.5263 24.1785 27.9802 26.362C27.4342 28.5454 26.1495 30.4727 24.3443 31.8168C22.539 33.161 20.3243 33.8391 18.076 33.7363C15.8276 33.6335 13.6841 32.7559 12.0091 31.2526C10.3341 29.7493 9.23078 27.7128 8.88635 25.4886C8.54192 23.2644 8.97758 20.9895 10.1194 19.05L19.3834 3H22.8484ZM18.5194 17.25C16.7292 17.25 15.0123 17.9612 13.7465 19.227C12.4806 20.4929 11.7694 22.2098 11.7694 24C11.7694 25.7902 12.4806 27.5071 13.7465 28.773C15.0123 30.0388 16.7292 30.75 18.5194 30.75C20.3096 30.75 22.0265 30.0388 23.2924 28.773C24.5583 27.5071 25.2694 25.7902 25.2694 24C25.2694 22.2098 24.5583 20.4929 23.2924 19.227C22.0265 17.9612 20.3096 17.25 18.5194 17.25Z" fill="#0D40C3"/>
</svg>
